<svg height="800" width="800" xmlns="http://www.w3.org/2000/svg" viewBox="0 0 472.658 472.658"><path d="M472.572 327.116h-.005c-.697 0-55.428-.981-58.861-96.663-3.622-100.851-72.728-138.885-120.515-140.647-30.639-23.009-68.59-36.81-109.857-36.81C82.08 52.996 0 135.077 0 236.33c0 101.252 82.08 183.332 183.333 183.332 101.252 0 183.332-82.08 183.332-183.331 0-46.164-17.191-88.224-45.353-120.457 31.737 12.036 70.133 43.435 72.711 115.291 4.111 114.481 77.659 115.644 78.634 115.644l-.085-19.693zm-360.114-9.173c-16.857 9.731-38.41 3.956-48.142-12.899s-3.956-38.411 12.899-48.142c16.856-9.733 38.41-3.956 48.142 12.899 9.732 16.856 3.956 38.411-12.899 48.142zm12.899-115.087c-9.732 16.856-31.286 22.63-48.142 12.899s-22.631-31.284-12.899-48.14c9.732-16.858 31.285-22.632 48.142-12.901 16.855 9.733 22.631 31.287 12.899 48.142zm57.976 170.902c-19.464 0-35.242-15.779-35.242-35.243 0-19.461 15.778-35.24 35.242-35.24 19.463 0 35.241 15.779 35.241 35.24.001 19.465-15.778 35.243-35.241 35.243zM163.436 236.33c0-10.988 8.908-19.897 19.897-19.897 10.988 0 19.896 8.909 19.896 19.897 0 10.987-8.908 19.896-19.896 19.896-10.989 0-19.897-8.908-19.897-19.896zm19.897-66.945c-19.464 0-35.242-15.779-35.242-35.242 0-19.465 15.778-35.243 35.242-35.243 19.463 0 35.241 15.778 35.241 35.243.001 19.464-15.778 35.242-35.241 35.242zM302.35 305.044c-9.732 16.856-31.285 22.63-48.142 12.899-16.856-9.731-22.631-31.286-12.899-48.142 9.732-16.856 31.286-22.632 48.142-12.899 16.856 9.731 22.631 31.286 12.899 48.142zm-12.9-89.288c-16.856 9.731-38.41 3.956-48.142-12.899-9.732-16.856-3.956-38.409 12.899-48.142 16.857-9.731 38.41-3.956 48.142 12.901 9.733 16.856 3.958 38.409-12.899 48.14z"/></svg>